<svg width="192" height="192" viewBox="0 0 192 192" fill="none" xmlns="http://www.w3.org/2000/svg">
  <rect width="192" height="192" rx="40" fill="#3b82f6"/>
  <path d="M96 48C79.4315 48 66 61.4315 66 78C66 94.5685 79.4315 108 96 108C112.569 108 126 94.5685 126 78C126 61.4315 112.569 48 96 48Z" fill="white"/>
  <path d="M96 96C89.3726 96 84 101.373 84 108V132C84 138.627 89.3726 144 96 144C102.627 144 108 138.627 108 132V108C108 101.373 102.627 96 96 96Z" fill="white"/>
  <circle cx="72" cy="120" r="12" fill="#60a5fa"/>
  <circle cx="120" cy="120" r="12" fill="#60a5fa"/>
</svg>
