<svg width="512" height="512" viewBox="0 0 512 512" fill="none" xmlns="http://www.w3.org/2000/svg">
  <rect width="512" height="512" rx="100" fill="#3b82f6"/>
  <path d="M256 128C211.817 128 176 163.817 176 208C176 252.183 211.817 288 256 288C300.183 288 336 252.183 336 208C336 163.817 300.183 128 256 128Z" fill="white"/>
  <path d="M256 256C238.327 256 224 270.327 224 288V352C224 369.673 238.327 384 256 384C273.673 384 288 369.673 288 352V288C288 270.327 273.673 256 256 256Z" fill="white"/>
  <circle cx="192" cy="320" r="32" fill="#60a5fa"/>
  <circle cx="320" cy="320" r="32" fill="#60a5fa"/>
</svg>
